<svg version="1.0" xmlns="http://www.w3.org/2000/svg" width="400" height="189.333" viewBox="0 0 300 142"><path d="M250.2 45.7c-1.8.9-4.5 3.2-5.9 5.3-2.6 3.5-2.8 3.6-6.4 2.6-8.3-2.2-18 5.3-18.3 14.1-.1 3.1.4 3.9 2.6 5 3.1 1.5 6.9.5 10.6-2.9 1.9-1.8 2.2-1.9 2.2-.5 0 .9 1.1 2.4 2.4 3.2 3 2 8.6.8 12.2-2.6 2.6-2.5 3.2-4.4 1.1-3.6-.8.3-2 .1-2.8-.4-1.9-1.2 2.4-9.5 8.7-16.7l4.6-5.2h-3.9c-2.1 0-5.3.8-7.1 1.7zM28.7 47.4c-4.9 1.8-6.5 3.3-10.2 9.5-1.7 2.8-3.5 5.1-4.1 5.1-2.1 0-5.6 4.8-5.2 7.1.4 3.3 4.7 5.2 8.6 3.8 1.7-.6 3.3-1.7 3.6-2.5.5-1.3 1-1.3 3.3.4 4.1 2.8 6 3.3 8.8 2.2 2.9-1.1 4.9-5.4 4-8.8l-.6-2.3-2.6 2.1c-1.4 1.1-4.1 2-5.9 2H25l2.9-5.9c1.7-3.2 4.6-7.6 6.6-9.6 1.9-2.1 3.5-3.9 3.5-4.1 0-.9-5.8-.2-9.3 1zm71.3-.8c-5.7 1.9-9.3 4.1-10.6 6.5-1.2 2.4-1.2 3 .2 4.3 2.1 2.1 2.1 2.1 6.3-2.2 2-2.1 2.6-2.7 1.5-1.3-1.2 1.4-3.4 4.5-4.8 6.8-1.5 2.2-3.6 4.3-4.7 4.6-2.9.8-2.5 5.3.6 7.3 2.1 1.4 3 1.4 5.5.4 1.7-.7 4.2-2.6 5.6-4.2 2.1-2.6 3-2.9 5.6-2.4 4.5.9 10.5-1.3 13.8-5.1 3.7-4.2 3.8-7.6.4-10.8-3.6-3.3-14.4-5.5-19.4-3.9zm-50 7.5c-5.8 2.4-10 8.5-10 14.4 0 2.9.5 3.7 2.6 4.5 3.3 1.3 6.7.4 9.8-2.7 2.4-2.4 2.4-2.4 3.1-.3 1.6 5.1 9.7 4.5 15-1l2.9-3h-2.7c-4.1 0-3.6-4 1.1-9.2l3.7-4.1-5 .7c-5.6.9-8.3.9-14 .2-2.2-.3-5.1-.1-6.5.5zm79.5.8c-10.4 4.8-10.9 13.9-.9 17.7 11.4 4.3 27-5.1 22.3-13.5-3.2-5.8-13.6-7.8-21.4-4.2zm33.5-.1c-2.4 1.2-3.6 2.5-3.8 4.3-.4 3.1 1.2 4.6 6.4 5.8l3.9.9-3.6.1c-2.1.1-4.2-.5-4.9-1.4-1.7-2-3.3-1.9-5.3.3-4.2 4.6.3 8.7 9.2 8.6 8.8-.1 15.4-4.9 12.2-8.8-.9-1-.5-1.6 1.9-2.6 2.5-1.1 7-6.4 7-8.4 0-1.2-6.6-.6-8.5.8-1.7 1.2-2.2 1.2-3.9 0-2.7-1.9-6.4-1.8-10.6.4zm31.5-.4c-3.9 1.7-7 5.2-9 9.9-1.9 4.6-1.2 7.5 2.2 8.8 3.2 1.2 6.1.4 9.5-2.8l2.6-2.5.7 2.2c1.6 5.1 9.8 4.5 15.1-1.2 2.7-2.8 2.7-3 .7-2.5-1.2.3-2.7 0-3.2-.7-1.2-1.4.9-6.6 3.9-9.6s1.8-3.6-4.7-2.2c-3.7.7-6.1.8-7.4.2-2.5-1.4-6.8-1.2-10.4.4zm68 .8c-4.4 2.6-8.5 8.8-8.5 13 0 4 3.9 6.4 8.2 4.9 1.8-.6 4.2-2.1 5.5-3.3 1.9-1.8 2.3-1.9 2.3-.5 0 2.6 4.3 4.9 7.6 4.1 5.1-1.2 12.5-7.9 8.2-7.3-5 .6-5-2.3-.2-8.7l3.6-4.7-4.8.7c-6 .9-7.7.9-13.4.1-3.6-.5-5.3-.1-8.5 1.7zM227 93.5V104h56V83h-56v10.5z"/></svg>