<?xml version="1.0" standalone="no"?>
<!DOCTYPE svg PUBLIC "-//W3C//DTD SVG 20010904//EN"
 "http://www.w3.org/TR/2001/REC-SVG-20010904/DTD/svg10.dtd">
<svg version="1.0" id="logo" xmlns="http://www.w3.org/2000/svg"
 width="300.000000pt" height="142.000000pt" viewBox="0 0 300.000000 142.000000"
 preserveAspectRatio="xMidYMid meet">
<metadata>
Created by potrace 1.16, written by Peter Selinger 2001-2019
</metadata>
<g transform="translate(0.000000,142.000000) scale(0.100000,-0.100000)"
fill="#000000" stroke="none">
<path d="M2502 963 c-18 -9 -45 -32 -59 -53 -26 -35 -28 -36 -64 -26 -83 22
-180 -53 -183 -141 -1 -31 4 -39 26 -50 31 -15 69 -5 106 29 19 18 22 19 22 5
0 -9 11 -24 24 -32 30 -20 86 -8 122 26 26 25 32 44 11 36 -8 -3 -20 -1 -28 4
-19 12 24 95 87 167 l46 52 -39 0 c-21 0 -53 -8 -71 -17z"/>
<path d="M287 946 c-49 -18 -65 -33 -102 -95 -17 -28 -35 -51 -41 -51 -21 0
-56 -48 -52 -71 4 -33 47 -52 86 -38 17 6 33 17 36 25 5 13 10 13 33 -4 41
-28 60 -33 88 -22 29 11 49 54 40 88 l-6 23 -26 -21 c-14 -11 -41 -20 -59 -20
l-34 0 29 59 c17 32 46 76 66 96 19 21 35 39 35 41 0 9 -58 2 -93 -10z"/>
<path d="M1000 954 c-57 -19 -93 -41 -106 -65 -12 -24 -12 -30 2 -43 21 -21
21 -21 63 22 20 21 26 27 15 13 -12 -14 -34 -45 -48 -68 -15 -22 -36 -43 -47
-46 -29 -8 -25 -53 6 -73 21 -14 30 -14 55 -4 17 7 42 26 56 42 21 26 30 29
56 24 45 -9 105 13 138 51 37 42 38 76 4 108 -36 33 -144 55 -194 39z"/>
<path d="M500 879 c-58 -24 -100 -85 -100 -144 0 -29 5 -37 26 -45 33 -13 67
-4 98 27 24 24 24 24 31 3 16 -51 97 -45 150 10 l29 30 -27 0 c-41 0 -36 40
11 92 l37 41 -50 -7 c-56 -9 -83 -9 -140 -2 -22 3 -51 1 -65 -5z"/>
<path d="M1295 871 c-104 -48 -109 -139 -9 -177 114 -43 270 51 223 135 -32
58 -136 78 -214 42z"/>
<path d="M1630 872 c-24 -12 -36 -25 -38 -43 -4 -31 12 -46 64 -58 l39 -9 -36
-1 c-21 -1 -42 5 -49 14 -17 20 -33 19 -53 -3 -42 -46 3 -87 92 -86 88 1 154
49 122 88 -9 10 -5 16 19 26 25 11 70 64 70 84 0 12 -66 6 -85 -8 -17 -12 -22
-12 -39 0 -27 19 -64 18 -106 -4z"/>
<path d="M1945 876 c-39 -17 -70 -52 -90 -99 -19 -46 -12 -75 22 -88 32 -12
61 -4 95 28 l26 25 7 -22 c16 -51 98 -45 151 12 27 28 27 30 7 25 -12 -3 -27
0 -32 7 -12 14 9 66 39 96 30 30 18 36 -47 22 -37 -7 -61 -8 -74 -2 -25 14
-68 12 -104 -4z"/>
<path d="M2625 868 c-44 -26 -85 -88 -85 -130 0 -40 39 -64 82 -49 18 6 42 21
55 33 19 18 23 19 23 5 0 -26 43 -49 76 -41 51 12 125 79 82 73 -50 -6 -50 23
-2 87 l36 47 -48 -7 c-60 -9 -77 -9 -134 -1 -36 5 -53 1 -85 -17z"/>
<path d="M2270 485 l0 -105 280 0 280 0 0 105 0 105 -280 0 -280 0 0 -105z"/>
</g>
</svg>
